<mxfile host="app.diagrams.net" modified="2021-08-15T09:42:59.768Z" agent="5.0 (Windows NT 10.0; Win64; x64) AppleWebKit/537.36 (KHTML, like Gecko) Chrome/92.0.4515.131 Safari/537.36 Edg/92.0.902.67" etag="Sju3dPCTcII6WJnshXd9" version="14.8.4" type="github">
  <diagram id="e--EM7hZcUtOmTENJlAS" name="Page-1">
    <mxGraphModel dx="1038" dy="547" grid="1" gridSize="10" guides="1" tooltips="1" connect="1" arrows="1" fold="1" page="1" pageScale="1" pageWidth="827" pageHeight="1169" math="0" shadow="0">
      <root>
        <mxCell id="0" />
        <mxCell id="1" parent="0" />
        <mxCell id="FJ6W45m7GHNcp0ndRjKU-1" value="&lt;font style=&quot;font-size: 18px&quot;&gt;A&lt;/font&gt;" style="ellipse;whiteSpace=wrap;html=1;aspect=fixed;" vertex="1" parent="1">
          <mxGeometry x="40" y="200" width="50" height="50" as="geometry" />
        </mxCell>
        <mxCell id="FJ6W45m7GHNcp0ndRjKU-5" value="" style="group" vertex="1" connectable="0" parent="1">
          <mxGeometry x="190" y="90" width="50" height="280" as="geometry" />
        </mxCell>
        <mxCell id="FJ6W45m7GHNcp0ndRjKU-2" value="&lt;font style=&quot;font-size: 18px&quot;&gt;B2&lt;/font&gt;" style="ellipse;whiteSpace=wrap;html=1;aspect=fixed;" vertex="1" parent="FJ6W45m7GHNcp0ndRjKU-5">
          <mxGeometry y="110" width="50" height="50" as="geometry" />
        </mxCell>
        <mxCell id="FJ6W45m7GHNcp0ndRjKU-3" value="&lt;font style=&quot;font-size: 18px&quot;&gt;B1&lt;/font&gt;" style="ellipse;whiteSpace=wrap;html=1;aspect=fixed;" vertex="1" parent="FJ6W45m7GHNcp0ndRjKU-5">
          <mxGeometry width="50" height="50" as="geometry" />
        </mxCell>
        <mxCell id="FJ6W45m7GHNcp0ndRjKU-4" value="&lt;font style=&quot;font-size: 18px&quot;&gt;B3&lt;/font&gt;" style="ellipse;whiteSpace=wrap;html=1;aspect=fixed;" vertex="1" parent="FJ6W45m7GHNcp0ndRjKU-5">
          <mxGeometry y="230" width="50" height="50" as="geometry" />
        </mxCell>
        <mxCell id="FJ6W45m7GHNcp0ndRjKU-7" value="" style="group" vertex="1" connectable="0" parent="1">
          <mxGeometry x="340" y="90" width="50" height="280" as="geometry" />
        </mxCell>
        <mxCell id="FJ6W45m7GHNcp0ndRjKU-8" value="&lt;font style=&quot;font-size: 18px&quot;&gt;C2&lt;/font&gt;" style="ellipse;whiteSpace=wrap;html=1;aspect=fixed;" vertex="1" parent="FJ6W45m7GHNcp0ndRjKU-7">
          <mxGeometry y="110" width="50" height="50" as="geometry" />
        </mxCell>
        <mxCell id="FJ6W45m7GHNcp0ndRjKU-9" value="&lt;font style=&quot;font-size: 18px&quot;&gt;C1&lt;/font&gt;" style="ellipse;whiteSpace=wrap;html=1;aspect=fixed;" vertex="1" parent="FJ6W45m7GHNcp0ndRjKU-7">
          <mxGeometry width="50" height="50" as="geometry" />
        </mxCell>
        <mxCell id="FJ6W45m7GHNcp0ndRjKU-10" value="&lt;font style=&quot;font-size: 18px&quot;&gt;C3&lt;/font&gt;" style="ellipse;whiteSpace=wrap;html=1;aspect=fixed;" vertex="1" parent="FJ6W45m7GHNcp0ndRjKU-7">
          <mxGeometry y="230" width="50" height="50" as="geometry" />
        </mxCell>
        <mxCell id="FJ6W45m7GHNcp0ndRjKU-11" value="" style="group" vertex="1" connectable="0" parent="1">
          <mxGeometry x="500" y="90" width="50" height="280" as="geometry" />
        </mxCell>
        <mxCell id="FJ6W45m7GHNcp0ndRjKU-12" value="&lt;font style=&quot;font-size: 18px&quot;&gt;D2&lt;/font&gt;" style="ellipse;whiteSpace=wrap;html=1;aspect=fixed;fillColor=#FFE599;" vertex="1" parent="FJ6W45m7GHNcp0ndRjKU-11">
          <mxGeometry y="110" width="50" height="50" as="geometry" />
        </mxCell>
        <mxCell id="FJ6W45m7GHNcp0ndRjKU-13" value="&lt;font style=&quot;font-size: 18px&quot;&gt;D1&lt;/font&gt;" style="ellipse;whiteSpace=wrap;html=1;aspect=fixed;fillColor=#FFE599;" vertex="1" parent="FJ6W45m7GHNcp0ndRjKU-11">
          <mxGeometry width="50" height="50" as="geometry" />
        </mxCell>
        <mxCell id="FJ6W45m7GHNcp0ndRjKU-14" value="&lt;font style=&quot;font-size: 18px&quot;&gt;D3&lt;/font&gt;" style="ellipse;whiteSpace=wrap;html=1;aspect=fixed;fillColor=#FFE599;" vertex="1" parent="FJ6W45m7GHNcp0ndRjKU-11">
          <mxGeometry y="230" width="50" height="50" as="geometry" />
        </mxCell>
        <mxCell id="FJ6W45m7GHNcp0ndRjKU-15" value="&lt;font style=&quot;font-size: 18px&quot;&gt;E&lt;/font&gt;" style="ellipse;whiteSpace=wrap;html=1;aspect=fixed;" vertex="1" parent="1">
          <mxGeometry x="680" y="200" width="50" height="50" as="geometry" />
        </mxCell>
        <mxCell id="FJ6W45m7GHNcp0ndRjKU-16" value="" style="endArrow=classic;html=1;entryX=0;entryY=1;entryDx=0;entryDy=0;" edge="1" parent="1" target="FJ6W45m7GHNcp0ndRjKU-3">
          <mxGeometry width="50" height="50" relative="1" as="geometry">
            <mxPoint x="80" y="210" as="sourcePoint" />
            <mxPoint x="130" y="160" as="targetPoint" />
          </mxGeometry>
        </mxCell>
        <mxCell id="FJ6W45m7GHNcp0ndRjKU-17" value="" style="endArrow=classic;html=1;entryX=0;entryY=0.5;entryDx=0;entryDy=0;" edge="1" parent="1" target="FJ6W45m7GHNcp0ndRjKU-2">
          <mxGeometry width="50" height="50" relative="1" as="geometry">
            <mxPoint x="88" y="225" as="sourcePoint" />
            <mxPoint x="440" y="250" as="targetPoint" />
          </mxGeometry>
        </mxCell>
        <mxCell id="FJ6W45m7GHNcp0ndRjKU-18" value="" style="endArrow=classic;html=1;exitX=1;exitY=1;exitDx=0;exitDy=0;entryX=0;entryY=0;entryDx=0;entryDy=0;" edge="1" parent="1" source="FJ6W45m7GHNcp0ndRjKU-1" target="FJ6W45m7GHNcp0ndRjKU-4">
          <mxGeometry width="50" height="50" relative="1" as="geometry">
            <mxPoint x="390" y="300" as="sourcePoint" />
            <mxPoint x="440" y="250" as="targetPoint" />
          </mxGeometry>
        </mxCell>
        <mxCell id="FJ6W45m7GHNcp0ndRjKU-19" value="" style="endArrow=classic;html=1;entryX=0;entryY=0.5;entryDx=0;entryDy=0;" edge="1" parent="1">
          <mxGeometry width="50" height="50" relative="1" as="geometry">
            <mxPoint x="240" y="224.5" as="sourcePoint" />
            <mxPoint x="342" y="224.5" as="targetPoint" />
          </mxGeometry>
        </mxCell>
        <mxCell id="FJ6W45m7GHNcp0ndRjKU-20" value="" style="endArrow=classic;html=1;entryX=0;entryY=0.5;entryDx=0;entryDy=0;" edge="1" parent="1" target="FJ6W45m7GHNcp0ndRjKU-12">
          <mxGeometry width="50" height="50" relative="1" as="geometry">
            <mxPoint x="390" y="224.5" as="sourcePoint" />
            <mxPoint x="492" y="224.5" as="targetPoint" />
          </mxGeometry>
        </mxCell>
        <mxCell id="FJ6W45m7GHNcp0ndRjKU-21" value="" style="endArrow=classic;html=1;entryX=0;entryY=0.5;entryDx=0;entryDy=0;" edge="1" parent="1" target="FJ6W45m7GHNcp0ndRjKU-15">
          <mxGeometry width="50" height="50" relative="1" as="geometry">
            <mxPoint x="550" y="224.5" as="sourcePoint" />
            <mxPoint x="660" y="225" as="targetPoint" />
          </mxGeometry>
        </mxCell>
        <mxCell id="FJ6W45m7GHNcp0ndRjKU-22" value="" style="endArrow=classic;html=1;entryX=0;entryY=0.5;entryDx=0;entryDy=0;" edge="1" parent="1">
          <mxGeometry width="50" height="50" relative="1" as="geometry">
            <mxPoint x="240" y="350" as="sourcePoint" />
            <mxPoint x="342" y="350" as="targetPoint" />
          </mxGeometry>
        </mxCell>
        <mxCell id="FJ6W45m7GHNcp0ndRjKU-23" value="" style="endArrow=classic;html=1;entryX=0;entryY=0.5;entryDx=0;entryDy=0;" edge="1" parent="1">
          <mxGeometry width="50" height="50" relative="1" as="geometry">
            <mxPoint x="238" y="120" as="sourcePoint" />
            <mxPoint x="340" y="120" as="targetPoint" />
          </mxGeometry>
        </mxCell>
        <mxCell id="FJ6W45m7GHNcp0ndRjKU-25" value="" style="endArrow=classic;html=1;entryX=0;entryY=0.5;entryDx=0;entryDy=0;" edge="1" parent="1">
          <mxGeometry width="50" height="50" relative="1" as="geometry">
            <mxPoint x="390" y="350" as="sourcePoint" />
            <mxPoint x="500" y="350.5" as="targetPoint" />
          </mxGeometry>
        </mxCell>
        <mxCell id="FJ6W45m7GHNcp0ndRjKU-26" value="" style="endArrow=classic;html=1;entryX=0;entryY=0.5;entryDx=0;entryDy=0;" edge="1" parent="1">
          <mxGeometry width="50" height="50" relative="1" as="geometry">
            <mxPoint x="390" y="120" as="sourcePoint" />
            <mxPoint x="500" y="120.5" as="targetPoint" />
          </mxGeometry>
        </mxCell>
        <mxCell id="FJ6W45m7GHNcp0ndRjKU-27" value="" style="endArrow=classic;html=1;entryX=0;entryY=0;entryDx=0;entryDy=0;exitX=1;exitY=0.5;exitDx=0;exitDy=0;" edge="1" parent="1" source="FJ6W45m7GHNcp0ndRjKU-13" target="FJ6W45m7GHNcp0ndRjKU-15">
          <mxGeometry width="50" height="50" relative="1" as="geometry">
            <mxPoint x="560" y="120" as="sourcePoint" />
            <mxPoint x="670" y="120.5" as="targetPoint" />
          </mxGeometry>
        </mxCell>
        <mxCell id="FJ6W45m7GHNcp0ndRjKU-28" value="" style="endArrow=classic;html=1;entryX=0;entryY=1;entryDx=0;entryDy=0;exitX=1;exitY=0.5;exitDx=0;exitDy=0;" edge="1" parent="1" source="FJ6W45m7GHNcp0ndRjKU-14" target="FJ6W45m7GHNcp0ndRjKU-15">
          <mxGeometry width="50" height="50" relative="1" as="geometry">
            <mxPoint x="590" y="280" as="sourcePoint" />
            <mxPoint x="700" y="280.5" as="targetPoint" />
          </mxGeometry>
        </mxCell>
        <mxCell id="FJ6W45m7GHNcp0ndRjKU-29" value="" style="endArrow=classic;html=1;entryX=0;entryY=0;entryDx=0;entryDy=0;exitX=1;exitY=1;exitDx=0;exitDy=0;" edge="1" parent="1" source="FJ6W45m7GHNcp0ndRjKU-3" target="FJ6W45m7GHNcp0ndRjKU-8">
          <mxGeometry width="50" height="50" relative="1" as="geometry">
            <mxPoint x="230" y="130" as="sourcePoint" />
            <mxPoint x="332" y="140" as="targetPoint" />
          </mxGeometry>
        </mxCell>
        <mxCell id="FJ6W45m7GHNcp0ndRjKU-30" value="" style="endArrow=classic;html=1;exitX=1;exitY=0;exitDx=0;exitDy=0;entryX=0;entryY=1;entryDx=0;entryDy=0;" edge="1" parent="1" source="FJ6W45m7GHNcp0ndRjKU-2" target="FJ6W45m7GHNcp0ndRjKU-9">
          <mxGeometry width="50" height="50" relative="1" as="geometry">
            <mxPoint x="390" y="300" as="sourcePoint" />
            <mxPoint x="440" y="250" as="targetPoint" />
          </mxGeometry>
        </mxCell>
        <mxCell id="FJ6W45m7GHNcp0ndRjKU-31" value="" style="endArrow=classic;html=1;entryX=0;entryY=0;entryDx=0;entryDy=0;exitX=1;exitY=1;exitDx=0;exitDy=0;" edge="1" parent="1" source="FJ6W45m7GHNcp0ndRjKU-9">
          <mxGeometry width="50" height="50" relative="1" as="geometry">
            <mxPoint x="380" y="130" as="sourcePoint" />
            <mxPoint x="507.3223304703363" y="207.32233047033628" as="targetPoint" />
          </mxGeometry>
        </mxCell>
        <mxCell id="FJ6W45m7GHNcp0ndRjKU-34" value="" style="endArrow=classic;html=1;entryX=0;entryY=1;entryDx=0;entryDy=0;" edge="1" parent="1" target="FJ6W45m7GHNcp0ndRjKU-13">
          <mxGeometry width="50" height="50" relative="1" as="geometry">
            <mxPoint x="380" y="205" as="sourcePoint" />
            <mxPoint x="500.0023304703363" y="129.9976695296637" as="targetPoint" />
          </mxGeometry>
        </mxCell>
        <mxCell id="FJ6W45m7GHNcp0ndRjKU-35" value="" style="endArrow=classic;html=1;exitX=1;exitY=0;exitDx=0;exitDy=0;entryX=0;entryY=1;entryDx=0;entryDy=0;" edge="1" parent="1" target="FJ6W45m7GHNcp0ndRjKU-8">
          <mxGeometry width="50" height="50" relative="1" as="geometry">
            <mxPoint x="229.9976695296637" y="324.6423304703363" as="sourcePoint" />
            <mxPoint x="344.6423304703363" y="249.9976695296637" as="targetPoint" />
          </mxGeometry>
        </mxCell>
        <mxCell id="FJ6W45m7GHNcp0ndRjKU-36" value="" style="endArrow=classic;html=1;exitX=1;exitY=0;exitDx=0;exitDy=0;entryX=0;entryY=1;entryDx=0;entryDy=0;" edge="1" parent="1" target="FJ6W45m7GHNcp0ndRjKU-12">
          <mxGeometry width="50" height="50" relative="1" as="geometry">
            <mxPoint x="379.9976695296637" y="324.6423304703363" as="sourcePoint" />
            <mxPoint x="494.6423304703363" y="249.9976695296637" as="targetPoint" />
          </mxGeometry>
        </mxCell>
        <mxCell id="FJ6W45m7GHNcp0ndRjKU-37" value="&lt;font style=&quot;font-size: 18px&quot;&gt;3&lt;/font&gt;" style="text;html=1;align=center;verticalAlign=middle;resizable=0;points=[];autosize=1;strokeColor=none;" vertex="1" parent="1">
          <mxGeometry x="105" y="150" width="30" height="20" as="geometry" />
        </mxCell>
        <mxCell id="FJ6W45m7GHNcp0ndRjKU-38" value="&lt;font style=&quot;font-size: 18px&quot;&gt;7&lt;/font&gt;" style="text;html=1;align=center;verticalAlign=middle;resizable=0;points=[];autosize=1;strokeColor=none;" vertex="1" parent="1">
          <mxGeometry x="270" y="100" width="30" height="20" as="geometry" />
        </mxCell>
        <mxCell id="FJ6W45m7GHNcp0ndRjKU-39" value="&lt;font style=&quot;font-size: 18px&quot;&gt;4&lt;/font&gt;" style="text;html=1;align=center;verticalAlign=middle;resizable=0;points=[];autosize=1;strokeColor=none;" vertex="1" parent="1">
          <mxGeometry x="430" y="100" width="30" height="20" as="geometry" />
        </mxCell>
        <mxCell id="FJ6W45m7GHNcp0ndRjKU-40" value="&lt;font style=&quot;font-size: 18px&quot;&gt;2&lt;/font&gt;" style="text;html=1;align=center;verticalAlign=middle;resizable=0;points=[];autosize=1;strokeColor=none;" vertex="1" parent="1">
          <mxGeometry x="620" y="140" width="30" height="20" as="geometry" />
        </mxCell>
        <mxCell id="FJ6W45m7GHNcp0ndRjKU-41" value="&lt;font style=&quot;font-size: 18px&quot;&gt;2&lt;/font&gt;" style="text;html=1;align=center;verticalAlign=middle;resizable=0;points=[];autosize=1;strokeColor=none;" vertex="1" parent="1">
          <mxGeometry x="120" y="290" width="30" height="20" as="geometry" />
        </mxCell>
        <mxCell id="FJ6W45m7GHNcp0ndRjKU-42" value="&lt;font style=&quot;font-size: 18px&quot;&gt;8&lt;/font&gt;" style="text;html=1;align=center;verticalAlign=middle;resizable=0;points=[];autosize=1;strokeColor=none;" vertex="1" parent="1">
          <mxGeometry x="280" y="360" width="30" height="20" as="geometry" />
        </mxCell>
        <mxCell id="FJ6W45m7GHNcp0ndRjKU-43" value="&lt;font style=&quot;font-size: 18px&quot;&gt;1&lt;/font&gt;" style="text;html=1;align=center;verticalAlign=middle;resizable=0;points=[];autosize=1;strokeColor=none;" vertex="1" parent="1">
          <mxGeometry x="430" y="360" width="30" height="20" as="geometry" />
        </mxCell>
        <mxCell id="FJ6W45m7GHNcp0ndRjKU-44" value="&lt;font style=&quot;font-size: 18px&quot;&gt;5&lt;/font&gt;" style="text;html=1;align=center;verticalAlign=middle;resizable=0;points=[];autosize=1;strokeColor=none;" vertex="1" parent="1">
          <mxGeometry x="620" y="300" width="30" height="20" as="geometry" />
        </mxCell>
        <mxCell id="FJ6W45m7GHNcp0ndRjKU-45" value="&lt;font style=&quot;font-size: 18px&quot;&gt;4&lt;/font&gt;" style="text;html=1;align=center;verticalAlign=middle;resizable=0;points=[];autosize=1;strokeColor=none;" vertex="1" parent="1">
          <mxGeometry x="130" y="200" width="30" height="20" as="geometry" />
        </mxCell>
        <mxCell id="FJ6W45m7GHNcp0ndRjKU-46" value="&lt;font style=&quot;font-size: 18px&quot;&gt;5&lt;/font&gt;" style="text;html=1;align=center;verticalAlign=middle;resizable=0;points=[];autosize=1;strokeColor=none;" vertex="1" parent="1">
          <mxGeometry x="250" y="270" width="30" height="20" as="geometry" />
        </mxCell>
        <mxCell id="FJ6W45m7GHNcp0ndRjKU-47" value="&lt;font style=&quot;font-size: 18px&quot;&gt;9&lt;/font&gt;" style="text;html=1;align=center;verticalAlign=middle;resizable=0;points=[];autosize=1;strokeColor=none;" vertex="1" parent="1">
          <mxGeometry x="399" y="270" width="30" height="20" as="geometry" />
        </mxCell>
        <mxCell id="FJ6W45m7GHNcp0ndRjKU-48" value="&lt;font style=&quot;font-size: 18px&quot;&gt;2&lt;/font&gt;" style="text;html=1;align=center;verticalAlign=middle;resizable=0;points=[];autosize=1;strokeColor=none;" vertex="1" parent="1">
          <mxGeometry x="240" y="170" width="30" height="20" as="geometry" />
        </mxCell>
        <mxCell id="FJ6W45m7GHNcp0ndRjKU-49" value="&lt;font style=&quot;font-size: 18px&quot;&gt;3&lt;/font&gt;" style="text;html=1;align=center;verticalAlign=middle;resizable=0;points=[];autosize=1;strokeColor=none;" vertex="1" parent="1">
          <mxGeometry x="250" y="130" width="30" height="20" as="geometry" />
        </mxCell>
        <mxCell id="FJ6W45m7GHNcp0ndRjKU-50" value="&lt;font style=&quot;font-size: 18px&quot;&gt;5&lt;/font&gt;" style="text;html=1;align=center;verticalAlign=middle;resizable=0;points=[];autosize=1;strokeColor=none;" vertex="1" parent="1">
          <mxGeometry x="400" y="130" width="30" height="20" as="geometry" />
        </mxCell>
        <mxCell id="FJ6W45m7GHNcp0ndRjKU-51" value="&lt;font style=&quot;font-size: 18px&quot;&gt;6&lt;/font&gt;" style="text;html=1;align=center;verticalAlign=middle;resizable=0;points=[];autosize=1;strokeColor=none;" vertex="1" parent="1">
          <mxGeometry x="380" y="170" width="30" height="20" as="geometry" />
        </mxCell>
        <mxCell id="FJ6W45m7GHNcp0ndRjKU-52" value="&lt;span style=&quot;font-size: 18px&quot;&gt;3&lt;/span&gt;" style="text;html=1;align=center;verticalAlign=middle;resizable=0;points=[];autosize=1;strokeColor=none;" vertex="1" parent="1">
          <mxGeometry x="270" y="200" width="30" height="20" as="geometry" />
        </mxCell>
        <mxCell id="FJ6W45m7GHNcp0ndRjKU-53" value="&lt;font style=&quot;font-size: 18px&quot;&gt;1&lt;/font&gt;" style="text;html=1;align=center;verticalAlign=middle;resizable=0;points=[];autosize=1;strokeColor=none;" vertex="1" parent="1">
          <mxGeometry x="430" y="200" width="30" height="20" as="geometry" />
        </mxCell>
        <mxCell id="FJ6W45m7GHNcp0ndRjKU-55" value="&lt;font style=&quot;font-size: 18px&quot;&gt;3&lt;/font&gt;" style="text;html=1;align=center;verticalAlign=middle;resizable=0;points=[];autosize=1;strokeColor=none;" vertex="1" parent="1">
          <mxGeometry x="590" y="200" width="30" height="20" as="geometry" />
        </mxCell>
      </root>
    </mxGraphModel>
  </diagram>
</mxfile>
